<?xml version="1.0" encoding="UTF-8" standalone="no"?>
<!-- Created with Inkscape (http://www.inkscape.org/) -->

<svg
   xmlns:dc="http://purl.org/dc/elements/1.1/"
   xmlns:cc="http://creativecommons.org/ns#"
   xmlns:rdf="http://www.w3.org/1999/02/22-rdf-syntax-ns#"
   xmlns:svg="http://www.w3.org/2000/svg"
   xmlns="http://www.w3.org/2000/svg"
   version="1.1"
   width="128"
   height="128"
   id="svg2">
  <defs
     id="defs4" />
  <metadata
     id="metadata7">
    <rdf:RDF>
      <cc:Work
         rdf:about="">
        <dc:format>image/svg+xml</dc:format>
        <dc:type
           rdf:resource="http://purl.org/dc/dcmitype/StillImage" />
        <dc:title></dc:title>
      </cc:Work>
    </rdf:RDF>
  </metadata>
  <g
     transform="translate(0,-924.36218)"
     id="layer1">
    <path
       d="m 152.65931,67.89592 c 0,33.96167 -27.53138,61.49304 -61.493043,61.49304 -33.961667,0 -61.493038,-27.53137 -61.493038,-61.49304 0,-33.961667 27.531371,-61.4930384 61.493038,-61.4930384 33.961663,0 61.493043,27.5313714 61.493043,61.4930384 z"
       transform="matrix(1.0407682,0,0,1.0407682,-30.882952,917.69827)"
       id="path2989"
       style="fill:#ffffff;fill-opacity:1;stroke:none" />
    <path
       d="m 115.28125,26.25 c -6.50189,0.290744 -20.021078,1.61863 -25.125,2.78125 -3.44907,0.78567 -6.711082,1.51045 -7.25,1.59375 -1.498872,0.23173 -8.919667,2.36359 -11.34375,3.25 -1.185618,0.43355 -3.397282,1.07937 -4.90625,1.4375 -9.706186,2.30357 -11.120151,2.68029 -19.21875,5.0625 -1.940103,0.57068 -4.501882,1.28963 -5.6875,1.625 -5.387282,1.52386 -9.74478,3.06493 -11.5625,4.0625 -2.715564,1.49033 -5.281913,2.24943 -9.25,2.75 -4.798391,0.60531 -7.757451,2.17351 -7.3125,3.875 0.16833,0.64371 -0.0013,0.68727 -1.625,0.53125 -1.671506,-0.16061 -1.847035,-0.078 -2.28125,0.875 -1.15168,2.52766 -0.023108,5.59028 3.75,10.15625 1.612677,1.9516 5.754907,5.68988 7.90625,7.125 0.754485,0.5033 2.265915,1.57255 3.34375,2.34375 1.077835,0.7712 3.178531,2.1965 4.6875,3.1875 1.508969,0.991 3.366189,2.21045 4.125,2.71875 1.899016,1.2719 7.229051,3.54945 9.59375,4.09375 1.985545,0.457 3.149291,0.96065 6.65625,2.84375 1.077835,0.5788 3.559897,1.51445 5.5,2.09375 1.940103,0.5793 4.74711,1.6556 6.25,2.375 1.502886,0.7193 2.971534,1.3125 3.25,1.3125 0.278465,0 0.813182,0.1637 1.1875,0.375 1.147134,0.6477 10.265455,2.6782 14,3.125 1.940105,0.2322 5.28183,0.8557 7.4375,1.375 2.15567,0.5192 5.32132,1.2236 7.03125,1.5625 1.70993,0.3388 2.98932,0.583 3.09375,0.6875 0.222842,0.222771 11.7891,2.79283 17.09375,3.6875 l 0.78125,-1.03125 C 110.49403,100.71443 99.290751,98.178 97.03125,97.8125 93.60676,97.25855 89.48308,96.30625 86.625,95.40625 85.33159,94.99895 82.548842,94.4676 80.4375,94.25 78.326158,94.0325 76.168386,93.7065 75.625,93.5 c -0.543385,-0.2066 -1.42534,-0.375 -1.9375,-0.375 -1.95141,0 -1.250023,-0.74485 0.90625,-0.96875 3.159785,-0.3281 4.499664,-0.80095 8.3125,-2.96875 2.578783,-1.4662 4.63062,-3.1608 9.09375,-7.5 5.16363,-5.0201 5.914106,-5.92115 7.1875,-8.625 0.78204,-1.6606 1.51538,-3.71285 1.625,-4.53125 0.23273,-1.7376 -0.932436,-5.4378 -2.3125,-7.3125 -1.701112,-2.31096 -3.11874,-5.6363 -3.21875,-7.59375 -0.1814,-3.5507 -3.91791,-9.26683 -7.53125,-11.5 -1.70938,-1.05646 -2.69306,-0.43035 -1.03125,0.65625 3.54822,2.32005 6.8323,7.43014 7.59375,11.84375 0.59499,3.44872 0.72464,3.89554 1.25,4.46875 1.84,2.00747 3.81214,6.49325 3.8125,8.65625 5.4e-4,3.29094 -2.40761,7.4782 -6.71875,11.65625 -3.37682,3.2726 -7.59539,6.98185 -8.96875,7.90625 -6.789002,4.5699 -14.529767,5.08255 -22.5,1.46875 -1.474721,-0.6687 -4.010553,-1.55585 -5.625,-1.96875 -2.947962,-0.754 -6.940705,-2.4143 -7.1875,-3 -0.07272,-0.1726 -1.206598,-0.64815 -2.5,-1.03125 -8.41646,-2.4925 -8.742514,-2.656 -15,-6.875 -2.437694,-1.64355 -4.740659,-3.1594 -5.09375,-3.375 C 21.71176,70.04671 16.543737,65.5782 14.75,63 14.250002,62.2813 13.252149,61.06815 12.53125,60.28125 11.072026,58.68842 10.613759,57.25854 11,55.5 c 0.290494,-1.32263 1.00339,-1.45877 3.3125,-0.625 1.488224,0.53737 1.87329,1.32396 1.9375,4.03125 0.0395,1.66564 0.694064,3.625 1.21875,3.625 0.157015,0 0.27994,0.30675 0.25,0.65625 -0.03354,0.3916 0.780603,1.08825 2.125,1.84375 1.200117,0.6745 3.981458,2.30035 6.1875,3.59375 6.889772,4.03954 7.412329,4.25325 10.3125,4.28125 2.753155,0.0264 3.484948,-0.33441 4.59375,-2.40625 1.513539,-2.8281 -1.134611,-6.6037 -6.4375,-9.1875 -1.077835,-0.5252 -3.741644,-2.22435 -5.9375,-3.78125 -2.195855,-1.5569 -4.176977,-2.8125 -4.40625,-2.8125 -0.567765,0 -0.536459,0.66214 0.0625,1.15625 3.095193,2.55342 7.965222,5.82145 10.28125,6.90625 2.057896,0.9638 4.77921,3.6222 5.125,5 0.372578,1.4844 -0.301607,2.81241 -1.8125,3.59375 C 35.975489,72.325 34.022447,71.63459 27,67.59375 23.723715,65.70865 20.695064,64.0688 20.28125,63.9375 19.538865,63.7018 17.883142,62.15625 18.375,62.15625 c 0.139448,0 -0.01151,-0.6697 -0.34375,-1.5 -0.332243,-0.83039 -0.55531,-1.68142 -0.5,-1.875 0.270332,-0.94614 -0.593705,-3.91525 -1.46875,-5.0625 l -1,-1.28125 1.0625,-0.8125 c 1.19508,-0.94005 3.236199,-1.40257 4.78125,-1.09375 1.630262,0.32585 6.723953,-1.11648 9.9375,-2.8125 1.578135,-0.83289 4.195747,-1.90312 5.8125,-2.375 1.616752,-0.4719 4.019098,-1.19915 5.3125,-1.59375 1.293402,-0.3946 3.394099,-1.02964 4.6875,-1.40625 1.293402,-0.3766 3.314381,-0.97236 4.5,-1.34375 7.066168,-2.2135 19.424265,-5.5 20.6875,-5.5 0.455579,0 0.86564,-0.14413 0.9375,-0.3125 0.110511,-0.25896 3.18933,-1.15664 9.71875,-2.84375 0.745684,-0.19266 1.44591,-0.2105 1.5625,-0.03125 0.11658,0.17924 1.14248,0.42445 2.28125,0.53125 2.55322,0.23946 3.92255,1.36991 4.09375,3.375 0.18988,2.22392 1.10855,2.06573 1.09375,-0.1875 -0.01554,-2.36078 -0.58147,-3.11412 -2.90625,-3.90625 -1.00911,-0.34384 -1.7751,-0.69365 -1.6875,-0.78125 0.08759,-0.08758 2.30717,-0.61874 4.90625,-1.15625 2.59909,-0.53751 5.466028,-1.24179 6.375,-1.5625 0.908974,-0.3207 2.41933,-0.3125 3.375,-0.3125 0.86203,0 9.91655,-0.859548 14.5827,-1.380524 0,0 -0.25067,-0.473477 -0.48895,-0.681976 -0.15838,0.0061 -0.23864,-0.0075 -0.40625,0 z M 47.21875,46.59375 C 45.495621,46.534723 41.230356,49.8142 40,52.28125 c -0.355176,0.71219 -0.729915,2.11265 -0.84375,3.125 -0.174707,1.55373 -0.0085,2.25575 1.09375,4.40625 1.204059,2.34926 1.525821,2.63025 3.875,3.78125 4.117521,2.0175 8.424975,1.4957 11.4375,-1.375 2.747903,-2.61855 3.178901,-6.22337 1.21875,-10.125 -1.521385,-3.02827 -3.473009,-4.75469 -5.71875,-5.0625 -2.265997,-0.31059 -2.497613,0.32343 -0.34375,0.96875 1.703833,0.51048 3.882218,2.6577 5.125,5.09375 0.898758,1.76172 1.144715,4.05095 0.34375,3.25 -0.25868,-0.25868 -0.879196,-0.46875 -1.375,-0.46875 -0.647449,0 -0.90625,-0.20427 -0.90625,-0.78125 0,-1.61373 -1.094872,-3.07428 -2.53125,-3.34375 C 49.759333,51.4469 48.741233,51.7324 49,52.4375 49.359836,53.41799 48.518517,54.062 46.9375,54 c -2.08507,-0.0817 -3.008318,0.92928 -2.6875,2.90625 0.259884,1.60149 1.108264,2.69838 2.71875,3.53125 1.342449,0.6942 3.731257,0.11247 5.09375,-1.25 0.798703,-0.7987 1.024817,-0.85034 2.34375,-0.4375 1.729263,0.54123 1.793615,0.89183 0.375,2.28125 -2.331035,2.2832 -7.687592,3.40015 -8.90625,1.84375 -0.223132,-0.285 -0.92247,-0.7203 -1.5625,-0.9375 -1.417972,-0.4811 -2.9375,-2.63616 -2.9375,-4.15625 0,-0.61484 -0.197943,-1.125 -0.4375,-1.125 -0.550143,0 -0.138635,-2.43369 0.6875,-4.03125 0.868763,-1.68001 2.882766,-3.54369 4.75,-4.40625 1.703614,-0.78698 2.033074,-1.22603 1.15625,-1.5625 -0.09081,-0.03485 -0.197625,-0.05857 -0.3125,-0.0625 z m 25.875,1.8125 c -0.07572,0.02265 -0.14999,0.08749 -0.21875,0.15625 -0.114384,0.11438 0.03417,0.69966 0.34375,1.3125 0.624639,1.23652 1.252686,6.65839 1.125,9.8125 -0.280656,6.93264 -4.45853,12.8048 -12.59375,17.71875 -6.023973,3.6388 -6.613748,3.96875 -7.4375,3.96875 -0.411855,0 -0.868524,0.1622 -1,0.375 -0.131476,0.2127 -1.200352,0.6585 -2.375,1 -1.174644,0.3415 -2.125,0.7997 -2.125,1 0,1.3567 7.09301,-1.3312 12.21875,-4.625 1.438929,-0.9246 2.741866,-1.6875 2.875,-1.6875 1.13527,0 8.78984,-7.30655 8.8125,-8.40625 0.0048,-0.2327 0.359703,-0.836 0.78125,-1.375 0.421547,-0.5389 0.77515,-1.27045 0.78125,-1.59375 0.0061,-0.3234 0.291831,-1.1111 0.625,-1.75 0.890476,-1.7077 0.851274,-10.50112 -0.0625,-13.40625 -0.533725,-1.696852 -1.219966,-2.658564 -1.75,-2.5 z M 31.8125,49.4375 c -0.453311,0.02559 -0.731675,0.521265 -0.5,1.125 0.129642,0.33784 0.427153,0.625 0.65625,0.625 0.673863,0 0.936078,-1.22768 0.34375,-1.59375 -0.173877,-0.107462 -0.348896,-0.16478 -0.5,-0.15625 z m 3,1.5 c -0.799522,0.04075 -2.84375,0.931114 -2.84375,1.3125 0,0.13459 0.299486,0.57454 0.65625,0.96875 0.746626,0.82501 1.044382,0.87411 2.09375,0.3125 0.809419,-0.43319 1.035994,-2.13467 0.34375,-2.5625 -0.05306,-0.0328 -0.135783,-0.03707 -0.25,-0.03125 z m -12.28125,1.03125 c -0.344385,-0.06377 -0.652938,0.3255 -0.65625,1.0625 -0.0027,0.59281 0.06002,1.21333 0.15625,1.375 0.578448,0.97185 1.547228,-0.63074 1.09375,-1.8125 -0.149413,-0.389359 -0.387119,-0.586736 -0.59375,-0.625 z"
       transform="translate(0,924.36218)"
       id="path3284"
       style="fill:#000000" />
  </g>
</svg>
